# xmcd
#
# Track frame offsets: 
#        150
#        12856
#        25816
#        38300
#        51703
#        64698
#        78215
#        90994
#        104443
#        116927
#        130088
#        142674
#        155296
#        166925
#
# Disc length: 2378 seconds
#
# Revision: 0
# Processed by: cddbd v1.5.2PL0 Copyright (c) Steve Scherf et al.
# Submitted via: ExactAudioCopy v0.95a5
#
DISCID=a309480e
DTITLE=Roy Acuff - Night Traiin To Memphis (Disk 1)
DYEAR=2001
DGENRE=Country
TTITLE0=Charming Betsy
TTITLE1=Living On The Mountain Baby Mine
TTITLE2=Streamline Cannon Ball
TTITLE3=When I Lay My Burden Down
TTITLE4=Come Back Little Pal
TTITLE5=Stuck Up Blues
TTITLE6=Mule Skinner Blues
TTITLE7=Tennessee Waltz
TTITLE8=Wreck On The Highway
TTITLE9=Black Mountain Rag
TTITLE10=Beautiful Blue Eyes
TTITLE11=Precious Jewel
TTITLE12=Low And Lonely
TTITLE13=Wait For The Light To Shine
EXTD=
EXTT0=
EXTT1=
EXTT2=
EXTT3=
EXTT4=
EXTT5=
EXTT6=
EXTT7=
EXTT8=
EXTT9=
EXTT10=
EXTT11=
EXTT12=
EXTT13=
PLAYORDER=
